<?xml version="1.0" encoding="iso-8859-1"?>
<!-- Generator: Adobe Illustrator 19.0.0, SVG Export Plug-In . SVG Version: 6.00 Build 0)  -->
<svg version="1.1" id="Capa_1" xmlns="http://www.w3.org/2000/svg" xmlns:xlink="http://www.w3.org/1999/xlink" x="0px" y="0px"
	 viewBox="0 0 495.988 495.988" style="enable-background:new 0 0 495.988 495.988;" xml:space="preserve">
<g>
	<g>
		<g>
			<path d="M494.259,113.028c-2.744-3.464-7.776-4.048-11.24-1.304L160.547,367.356L13.611,224.268
				c-3.163-3.093-8.235-3.035-11.328,0.128c-3.093,3.164-3.036,8.235,0.128,11.328l152,148c2.879,2.804,7.392,3.037,10.544,0.544
				l328-260C496.419,121.525,497.002,116.492,494.259,113.028z"/>
			<path d="M482.923,155.804h0.024l-258.472,211.48l-3.728-3.624c-2.997-3.247-8.058-3.449-11.305-0.452s-3.449,8.058-0.452,11.305
				c0.196,0.212,0.403,0.414,0.621,0.604l8.8,8.608c2.913,2.836,7.491,3.036,10.64,0.464l264-216
				c3.377-2.849,3.805-7.896,0.955-11.273C491.218,153.611,486.31,153.119,482.923,155.804z"/>
			<path d="M170.163,336.724c3.077,3.17,8.142,3.245,11.313,0.168c3.17-3.077,3.245-8.142,0.168-11.312
				c-0.106-0.11-0.216-0.216-0.328-0.32L77.611,224.268c-3.163-3.093-8.235-3.035-11.328,0.128
				c-3.093,3.163-3.036,8.235,0.128,11.328L170.163,336.724z"/>
		</g>
	</g>
</g>
<g>
</g>
<g>
</g>
<g>
</g>
<g>
</g>
<g>
</g>
<g>
</g>
<g>
</g>
<g>
</g>
<g>
</g>
<g>
</g>
<g>
</g>
<g>
</g>
<g>
</g>
<g>
</g>
<g>
</g>
</svg>
