<?xml version="1.0" encoding="iso-8859-1"?>
<!-- Generator: Adobe Illustrator 19.0.0, SVG Export Plug-In . SVG Version: 6.00 Build 0)  -->
<svg version="1.1" id="Capa_1" xmlns="http://www.w3.org/2000/svg" xmlns:xlink="http://www.w3.org/1999/xlink" x="0px" y="0px"
	 viewBox="0 0 496 496" style="enable-background:new 0 0 496 496;" xml:space="preserve">
<g>
	<g>
		<g>
			<path d="M488,0H8C3.582,0,0,3.582,0,8v480c0,4.418,3.582,8,8,8h480c4.418,0,8-3.582,8-8V8C496,3.582,492.418,0,488,0z M480,480
				H16V16h464V480z"/>
			<path d="M96,256h304c4.418,0,8-3.582,8-8s-3.582-8-8-8H96c-4.418,0-8,3.582-8,8S91.582,256,96,256z"/>
		</g>
	</g>
</g>
<g>
</g>
<g>
</g>
<g>
</g>
<g>
</g>
<g>
</g>
<g>
</g>
<g>
</g>
<g>
</g>
<g>
</g>
<g>
</g>
<g>
</g>
<g>
</g>
<g>
</g>
<g>
</g>
<g>
</g>
</svg>
